<svg width="61" height="70" viewBox="0 0 61 70" fill="none" xmlns="http://www.w3.org/2000/svg">
<g clip-path="url(#clip0_166_108)">
<path d="M14.9777 17.0821C13.8067 19.4337 13.0714 22.0587 13.0714 24.8751C13.0714 34.5411 20.8734 42.3751 30.5 42.3751C40.1265 42.3751 47.9286 34.5411 47.9286 24.8751C47.9286 22.0587 47.2069 19.4337 46.0223 17.0821L30.5 21.0821L14.9777 17.0821Z" fill="white"/>
<path d="M43.4897 43.8321L30.5 56.8751L17.5103 43.8321C7.77478 44.256 0 52.254 0 62.1251V63.4376C0 67.0606 2.92746 70.0001 6.53571 70.0001H54.4643C58.0725 70.0001 61 67.0606 61 63.4376V62.1251C61 52.254 53.2252 44.256 43.4897 43.8321Z" fill="white"/>
<path d="M1.85179 10.9102L2.72321 11.1153V19.0997C1.77009 19.6739 1.08929 20.672 1.08929 21.8751C1.08929 23.0235 1.71563 23.9806 2.60067 24.5685L0.476562 33.086C0.245089 34.0294 0.7625 35.0001 1.51138 35.0001H7.2029C7.95179 35.0001 8.4692 34.0294 8.23772 33.086L6.11362 24.5685C6.99866 23.9806 7.625 23.0235 7.625 21.8751C7.625 20.672 6.9442 19.6739 5.99107 19.0997V11.9083L14.9777 14.0821L28 17C28 17 29.5 17.5 30.5 17.5C31.5 17.5 33.2096 17 33.2096 17L46.0223 14.0821L59.1346 10.9102C61.6127 10.3087 61.6127 7.20517 59.1346 6.60361L33.2096 0.314545C31.4395 -0.109283 29.5741 -0.109283 27.804 0.314545L1.85179 6.58994C-0.612723 7.1915 -0.612723 10.3087 1.85179 10.9102Z" fill="white"/>
</g>
<defs>
<clipPath id="clip0_166_108">
<rect width="61" height="70" fill="white"/>
</clipPath>
</defs>
</svg>
