<svg width="70" height="70" viewBox="0 0 70 70" fill="none" xmlns="http://www.w3.org/2000/svg">
<g clip-path="url(#clip0_164_45)">
<path d="M34.9629 0C15.6478 0.021 0 15.6842 0 35C0.00985695 40.4824 1.30751 45.8859 3.78838 50.7749C6.26925 55.664 9.86395 59.9018 14.2828 63.147C14.0973 61.7253 14.1337 60.2574 14.3647 58.8056C12.0552 56.8009 10.0485 54.472 8.407 51.8917H17.1185C17.9459 50.6002 18.7985 49.3227 20.286 48.3917C19.4145 44.8217 18.8818 40.8905 18.7838 36.75H19.726C20.0055 35.5244 20.4605 34.3456 21.077 33.25H18.8069C18.9553 29.0955 19.537 25.1622 20.461 21.609H33.25V27.8306C34.4877 28.0199 35.6766 28.4488 36.75 29.0934V21.609H50.1865C50.3685 22.3069 50.533 23.023 50.687 23.7489C51.8648 23.5685 53.061 23.541 54.2458 23.667C54.1102 22.9781 53.9611 22.292 53.7985 21.609H63.5215C64.9772 24.7085 65.9148 28.0257 66.297 31.4286C66.703 34.9629 66.7107 39.1111 65.4248 43.1683C65.0077 44.7184 64.4727 46.2343 63.8246 47.7029C64.6142 48.5338 65.5704 49.3192 66.5315 50.1207C68.8042 45.4034 69.9895 40.2362 70 35C70 15.6702 54.3298 0 35 0H34.9629ZM36.75 3.9774C40.4376 4.6046 43.9614 7.6426 46.7376 12.6833C47.6322 14.308 48.4316 16.1322 49.1232 18.1083H36.75V3.9774ZM33.25 4.1153V18.1083H21.525C22.2166 16.1322 23.016 14.308 23.9106 12.6833C26.523 7.9387 29.7997 4.9714 33.25 4.116V4.1153ZM25.186 5.0624C23.5592 6.7088 22.099 8.7164 20.8439 10.9949C19.6679 13.1299 18.6564 15.5218 17.8255 18.1083H8.407C12.2815 12.0141 18.1895 7.3493 25.186 5.0624ZM45.773 5.3865C52.3516 7.7756 57.897 12.2941 61.593 18.1083H52.8185C51.9897 15.5218 50.9796 13.1299 49.8036 10.9949C48.6304 8.8634 47.2745 6.9706 45.7737 5.3865H45.773ZM6.4799 21.609H16.8455C15.974 25.2224 15.4399 29.141 15.3034 33.2507H3.5504C3.76781 29.218 4.7623 25.2652 6.4792 21.6097L6.4799 21.609ZM3.5504 36.75H15.2838C15.3741 40.8492 15.8578 44.7678 16.6796 48.391H6.4792C4.7623 44.7355 3.76781 40.7827 3.5504 36.75Z" fill="white"/>
<path d="M53.2 26.4383C47.4005 26.4383 42.7 31.1395 42.7 36.9383C42.7 42.7371 47.4005 47.4383 53.2 47.4383C58.9981 47.4383 63.7 42.7371 63.7 36.9383C63.7 31.1395 58.9981 26.4383 53.2 26.4383ZM53.2 48.9944C41.601 48.9944 36.4 54.1961 36.4 65.7944V67.1944C36.4525 69.9524 37.6719 70.0336 40.25 69.9944H66.15C69.4365 69.9916 70.0224 69.9979 70 67.1944V65.7944C70 54.1961 64.7976 48.9944 53.2 48.9944ZM30.8 30.373C26.0491 30.373 22.1963 34.2258 22.1963 38.9774C22.1963 43.7283 26.0491 47.5797 30.8 47.5797C35.5509 47.5797 39.403 43.7283 39.403 38.9767C39.403 34.2258 35.5509 30.3737 30.8 30.3737V30.373ZM30.8 48.8537C21.2975 48.8537 17.0352 53.1167 17.0352 62.6185V63.7658C17.0786 66.0254 18.0775 66.0919 20.1894 66.0597H33.5755C33.2339 60.3981 34.9062 54.3851 39.0712 50.5624C36.9628 49.4102 34.2237 48.8537 30.8 48.8537Z" fill="white"/>
</g>
<defs>
<clipPath id="clip0_164_45">
<rect width="70" height="70" fill="white"/>
</clipPath>
</defs>
</svg>
