<svg width="70" height="70" viewBox="0 0 70 70" fill="none" xmlns="http://www.w3.org/2000/svg">
<g clip-path="url(#clip0_166_104)">
<path d="M35 0C15.6828 0 0 15.6828 0 35C0 54.3172 15.6828 70 35 70C54.2822 70 69.9377 54.3732 69.9944 35.1036C69.998 35.0692 69.9998 35.0346 70 35C70 34.9689 69.9986 34.9379 69.9958 34.9069C69.9454 15.6324 54.2864 0 35 0ZM35 2.1C36.1837 2.1 37.352 2.1658 38.5042 2.2876C38.5126 2.4388 38.2221 2.5431 37.3408 2.5088C36.8858 2.9064 36.9838 2.9729 35.1988 3.0324C34.8404 4.5906 30.6747 3.6974 33.3949 2.8959C37.3471 1.9768 32.1279 1.9432 31.2347 3.4811C33.7701 4.571 29.2089 3.6736 28.3815 4.4681C27.8789 3.9515 26.7701 3.528 25.5528 3.4811C28.6181 2.56424 31.8006 2.09898 35 2.1ZM60.1426 13.7788C61.0809 14.8918 61.9445 16.0657 62.7277 17.2928C62.7606 17.5518 62.7697 17.8087 62.7375 18.0628C63.1876 19.4194 62.3252 18.1258 62.3028 17.9536C61.1842 16.7958 60.7593 15.2768 60.1426 13.7788ZM10.4272 13.9153C11.0733 13.8243 7.5978 16.7069 9.0139 16.4052C10.374 13.3182 11.0481 16.9708 9.044 17.1948C7.392 21.2737 11.1776 15.0948 11.2112 17.3124C10.1997 19.4747 11.354 20.8411 13.3014 19.838C15.1683 19.0946 13.6731 21.0322 14.7476 21C16.2036 18.998 15.7248 21.0966 14.525 22.5722C12.6294 23.4318 10.8304 21.9807 9.5648 20.881C8.1788 23.7321 7.0721 19.7148 8.0024 18.606C9.2526 18.235 8.0528 17.458 7.5565 16.8476C7.7588 16.5431 7.9681 16.2435 8.1795 15.9453C8.3993 15.7822 8.4707 15.6555 8.4644 15.5463C8.7262 15.1893 8.9978 14.8393 9.2736 14.4935C9.9162 14.1169 10.2851 13.9356 10.4272 13.9153ZM17.1283 13.9265C17.0506 15.0535 20.2573 14.6916 20.0613 16.7027C18.9784 17.4902 18.1279 16.1777 17.1283 16.0713C14.1106 17.1157 15.2565 14.7434 17.1283 13.9265ZM25.886 14.1491C26.1436 14.1582 26.3235 14.2849 26.3501 14.5635C23.9071 15.2838 26.1219 18.2546 25.9273 20.1565C24.1962 20.7746 22.0304 19.2402 24.3208 17.8535C22.1963 16.275 24.7702 14.1092 25.886 14.1491ZM59.4272 16.7783C60.4716 16.6642 61.6231 18.4282 62.6227 20.2552C62.1607 17.0296 65.3646 24.6575 64.0486 20.2832C64.1172 20.1355 64.1634 19.9815 64.1935 19.824C66.6344 24.5099 67.906 29.7165 67.9 35C67.9 36.4581 67.795 37.891 67.6116 39.298C67.2105 39.3582 67.1902 43.0374 66.5161 42.1022C65.9344 42.5964 68.0407 38.2039 66.5 40.9353C64.0801 43.4483 65.4262 39.1076 66.3348 37.8973C67.0033 38.2613 67.5822 37.5158 67.2014 35.7658C66.9284 32.9238 65.6152 32.0257 64.9474 29.4847C63.8372 30.0272 65.6089 33.7337 64.9824 35.4291C64.4714 37.6411 63.4473 42.8953 61.3732 42.5222C60.242 39.9056 61.6182 44.9302 61.0463 45.8703C61.4866 46.522 64.7829 47.2101 64.3412 44.4157C65.569 40.9766 64.8732 43.9817 64.7731 45.8948C66.4377 47.1828 61.9731 48.9776 63.5264 47.7134C62.3742 47.2612 61.425 48.5429 60.4408 48.4106C59.5903 49.1519 59.5224 47.8002 59.8948 47.3564C62.4939 46.1566 58.7041 46.585 59.325 45.3404C59.647 42.6216 57.4826 40.8072 56.427 39.0523C55.9496 35.6678 59.1885 38.1556 59.0436 39.4814C62.5156 37.9281 61.1261 33.3473 59.0177 31.2809C60.4513 28.2982 59.6141 31.6365 60.6977 32.0663C60.9588 30.1287 61.5818 29.0885 62.8796 27.4232C63.7266 24.4293 62.6234 21.3731 60.4926 19.2374C61.6476 17.7107 58.0076 17.2095 59.22 16.8259C59.2886 16.8014 59.3579 16.786 59.4272 16.7783ZM22.2502 25.5829C21.945 27.4134 26.159 27.9314 24.6393 29.0661C24.2354 29.2117 23.8063 29.3776 23.3667 29.2698C23.5949 28.266 20.1747 25.5402 22.2495 25.5829H22.2502ZM13.4876 26.0799C13.7697 26.0211 14.1995 26.6581 14.0714 27.7718C14.5614 30.5788 15.568 33.0883 16.0055 35.7616C16.0475 36.9796 15.4679 35.8876 15.2824 35.539C13.6829 33.3585 13.9762 30.3282 13.4309 27.5884C13.139 26.5944 13.2678 26.1268 13.4869 26.0806L13.4876 26.0799ZM26.2213 28.9324C28.0567 29.855 32.0229 28.6342 33.9143 30.4731C35.1673 29.057 33.7197 32.6907 35.8435 32.8916C38.1549 32.0131 36.9474 34.3084 37.7783 35.8526C38.9872 38.0226 39.2693 41.3483 41.4365 42.6524C43.4833 39.865 42.3038 45.7072 44.5907 43.7612C45.0604 41.4008 42.7469 39.6501 43.4497 37.0902C44.7601 35.5558 46.7901 34.1019 47.8947 32.1629C49.7161 30.2869 51.3863 31.7065 52.3698 33.5398C52.2396 35.3563 53.13 35.9758 54.6357 34.9552C55.4197 37.3492 54.5076 40.4852 56.7189 42.2513C58.5046 46.3652 54.3977 40.5433 53.6263 43.0374C55.3098 44.6334 54.8513 46.2126 56.0112 47.8723C57.1144 47.6805 58.2834 49.9751 59.9487 49.8834C61.4579 49.3801 63.6027 49.4592 64.9978 48.5163C64.0908 50.5285 62.9832 52.444 61.6917 54.2339C60.6613 55.1656 59.85 56.2632 59.0926 57.4042C53.0873 63.8596 44.5214 67.9 35 67.9C27.6285 67.9105 20.469 65.4343 14.679 60.872C14.4515 59.612 15.372 59.8297 14.9079 58.7153C12.6259 56.483 17.7499 56.8981 15.8837 54.2899C15.2033 52.549 14.1211 50.4245 14.6398 48.65C15.7423 46.8986 17.696 46.0355 19.1968 44.5403C20.1656 42.6867 22.0808 40.9486 21.6986 38.8514C20.3924 38.6386 19.6595 39.0656 18.1587 39.1223C14.4606 38.2515 19.5167 37.6971 20.5212 36.9222C22.8606 36.2523 25.5612 35.4193 27.0361 33.4103C29.2082 32.0691 27.9335 29.9824 26.2213 28.9324ZM65.6292 34.9468C65.9834 35.1113 66.2942 37.5739 65.5746 38.5763C64.8347 39.8125 64.4532 36.8543 65.212 36.4987C65.2981 35.2709 65.4682 34.8719 65.6292 34.9468ZM66.3726 43.3097C66.4412 43.2971 66.5329 43.4413 66.6694 43.8228C66.6848 43.8004 66.6953 43.7948 66.7107 43.7738C66.48 44.6197 66.2155 45.4559 65.9176 46.2805C65.4857 46.6004 65.0867 46.7572 65.2589 45.8556C66.2375 46.3729 66.0765 43.3657 66.3726 43.3097ZM20.8075 55.2139C20.5457 55.2454 20.2545 55.482 19.9486 55.9986C17.1962 56.2492 18.2791 59.4286 19.4852 60.9462C20.3742 62.1922 21.8778 61.6651 21.6097 60.0768C22.5428 58.7797 21.9415 55.0781 20.8075 55.2139Z" fill="white"/>
</g>
<defs>
<clipPath id="clip0_166_104">
<rect width="70" height="70" fill="white"/>
</clipPath>
</defs>
</svg>
