<svg width="70" height="70" viewBox="0 0 70 70" fill="none" xmlns="http://www.w3.org/2000/svg">
<g clip-path="url(#clip0_164_67)">
<path fill-rule="evenodd" clip-rule="evenodd" d="M6.45443 34.257C2.94212 39.344 0.0378798 43.5915 0.000809744 43.6956C-0.0365718 43.7997 1.22506 44.7787 2.80443 45.8703C5.8205 47.9558 7.04506 48.2914 8.54219 47.443C9.13406 47.1077 16.7269 36.5016 18.6738 33.2908C19.4819 31.9582 19.5433 30.4544 18.8343 29.3513C18.3253 28.5598 13.6189 24.9858 13.1046 25C12.9591 25.0042 9.96674 29.1697 6.45443 34.257ZM56.5542 27.8574C53.2876 29.5507 52.5584 30.2874 52.5584 31.8924C52.5584 33.086 59.8665 48.2736 60.8948 49.2173C62.1953 50.4108 63.4106 50.2679 66.8291 48.5194L70 46.8975L64.9417 36.5803C62.1595 30.9056 59.8123 26.2701 59.7254 26.279C59.6384 26.2879 58.2114 26.9982 56.5542 27.8574ZM35.5828 32.9634L31.5353 34.5568L29.8198 33.9824C27.9629 33.3607 22.4805 33.2864 20.9934 33.8627C20.5012 34.0532 18.5499 36.5994 15.5076 41.0202C12.9105 44.7942 10.7025 48.1025 10.6013 48.3717C10.4786 48.6975 11.1589 49.6224 12.6377 51.1399C14.7883 53.3466 14.8562 53.4644 14.7961 54.8764C14.7214 56.6272 15.4441 57.9214 16.7574 58.3882C17.4309 58.6273 17.6689 58.9153 17.6689 59.4903C17.6689 60.7191 18.5576 62.1537 19.5937 62.5975C20.4242 62.9535 20.552 63.1764 20.6086 64.3668C20.6607 65.4619 20.8747 65.9118 21.7008 66.664C22.7519 67.6213 23.7123 67.7172 25.6904 67.0631C26.2106 66.8911 26.3913 66.9561 26.3913 67.3162C26.3913 67.5832 26.7997 68.1519 27.299 68.5803C28.5476 69.6509 32.8555 70.0958 34.0769 69.2801L34.8707 68.7501L33.7461 67.5763C33.1277 66.9304 32.6215 66.1261 32.6215 65.7886C32.6215 65.3346 33.2097 65.7674 34.88 67.4496C36.122 68.7006 37.5167 69.8179 37.9786 69.9326C39.0935 70.2091 40.7854 69.6106 41.7934 68.5831L42.6096 67.7515L38.9873 64.0134C36.8397 61.7971 35.4541 60.1288 35.5837 59.9151C35.8326 59.5046 35.7192 59.4058 41.1467 64.7599C45.1874 68.7457 45.6967 69.0064 47.5433 68.0329C48.5473 67.5039 50.3778 65.4835 50.3778 64.905C50.3778 64.69 48.6981 62.8065 46.6449 60.7191C44.1556 58.1885 43.0161 56.8184 43.2239 56.6066C43.4317 56.3948 44.8064 57.5814 47.3505 60.1682C49.9021 62.7627 51.3914 64.0477 51.8472 64.0477C53.6655 64.0477 55.362 62.1505 55.362 60.1174C55.362 58.7432 54.9944 57.9011 53.8443 56.6425L53.0256 55.7467L54.2717 54.6081C57.366 51.7806 58.7871 50.3156 58.7693 49.972C58.7587 49.7675 57.1002 46.2427 55.0835 42.1388L51.4167 34.6771L47.081 33.0222C41.4682 30.8792 40.885 30.8764 35.5828 32.9634ZM44.9263 33.7591C46.6396 34.3818 48.6059 35.0959 49.2959 35.3458C50.5286 35.7919 50.6102 35.9221 53.9686 42.8059L57.3868 49.812L54.739 52.308L52.0911 54.8043L44.8621 47.456C40.886 43.4143 37.5917 39.8146 37.5416 39.4561C37.4693 38.942 37.1858 38.7852 36.1974 38.7109L34.9445 38.6166L34.6065 40.8055C33.9822 44.8453 31.9057 48.4124 29.3843 49.7758C27.728 50.6715 26.3072 50.4143 26.1349 49.1884C26.0365 48.4886 31.0468 36.9839 31.7945 36.1923C32.3122 35.6443 40.0882 32.6529 41.0324 32.6386C41.4607 32.6323 43.213 33.1365 44.9263 33.7591ZM6.26877 42.236C7.43694 43.1066 6.19494 45.2657 4.97474 44.4862C4.20748 43.996 4.09378 42.7408 4.77101 42.236C5.07723 42.008 5.41397 41.8213 5.51989 41.8213C5.6258 41.8213 5.96255 42.008 6.26877 42.236ZM65.6419 44.9965C66.108 45.8839 65.5254 46.9016 64.5516 46.9016C64.1136 46.9016 63.6542 46.6342 63.4613 46.2666C62.9953 45.3791 63.5778 44.3614 64.5516 44.3614C64.9896 44.3614 65.4491 44.6288 65.6419 44.9965ZM19.4342 54.3998C19.9124 55.1435 19.9202 55.3178 19.5096 56.0668C18.6175 57.695 16.1113 57.1413 16.1113 55.3159C16.1113 53.5419 18.4658 52.8929 19.4342 54.3998ZM23.1188 56.6291C24.5474 57.188 24.1939 59.4557 22.4615 60.8445C21.465 61.6434 20.5638 61.6901 19.7962 60.982C18.8897 60.1457 19.0938 58.974 20.38 57.6312C21.5164 56.445 22.1011 56.2313 23.1188 56.6291ZM27.2563 60.4143C28.3896 61.223 28.1323 62.3004 26.3461 64.2255C25.0645 65.6067 24.5465 65.9528 23.7605 65.9528C21.4444 65.9528 21.3884 64.0661 23.6328 61.6472C25.3281 59.8202 26.0707 59.5675 27.2563 60.4143ZM30.6746 64.771C31.1708 65.1622 31.1811 66.9765 30.6902 67.4769C30.1734 68.0036 28.4161 67.9554 27.9657 67.4023C27.7616 67.1517 27.6395 66.4764 27.694 65.9013C27.8448 64.3118 29.3625 63.7362 30.6746 64.771Z" fill="white"/>
<path d="M31.7738 11.4649L29.6753 11.1455L28.7372 9.15406C28.7116 9.09953 28.6694 9.05539 28.6174 9.02856C28.4868 8.96106 28.3281 9.01731 28.2628 9.15406L27.3247 11.1455L25.2263 11.4649C25.1684 11.4736 25.1155 11.5021 25.075 11.5454C25.0261 11.5981 24.9991 11.669 25 11.7425C25.001 11.816 25.0297 11.8861 25.08 11.9375L26.5983 13.4875L26.2396 15.6763C26.2311 15.7273 26.2365 15.7796 26.2551 15.8275C26.2737 15.8754 26.3047 15.9168 26.3446 15.9472C26.3845 15.9776 26.4318 15.9956 26.481 15.9993C26.5302 16.003 26.5794 15.9921 26.6231 15.968L28.5 14.9346L30.377 15.968C30.4282 15.9966 30.4877 16.0061 30.5448 15.9957C30.6886 15.9697 30.7853 15.8269 30.7605 15.6763L30.4018 13.4875L31.92 11.9375C31.9614 11.895 31.9886 11.8397 31.9969 11.7791C32.0192 11.6276 31.9184 11.4874 31.7738 11.4649Z" fill="white"/>
<path d="M46.7738 11.4649L44.6753 11.1455L43.7372 9.15406C43.7116 9.09953 43.6694 9.05539 43.6174 9.02856C43.4868 8.96106 43.3281 9.01731 43.2628 9.15406L42.3247 11.1455L40.2263 11.4649C40.1684 11.4736 40.1155 11.5021 40.075 11.5454C40.0261 11.5981 39.9991 11.669 40 11.7425C40.001 11.816 40.0297 11.8861 40.08 11.9375L41.5983 13.4875L41.2396 15.6763C41.2311 15.7273 41.2365 15.7796 41.2551 15.8275C41.2737 15.8754 41.3047 15.9168 41.3446 15.9472C41.3845 15.9776 41.4318 15.9956 41.481 15.9993C41.5302 16.003 41.5794 15.9921 41.6231 15.968L43.5 14.9346L45.377 15.968C45.4282 15.9966 45.4877 16.0061 45.5448 15.9957C45.6886 15.9697 45.7853 15.8269 45.7605 15.6763L45.4018 13.4875L46.92 11.9375C46.9614 11.895 46.9886 11.8397 46.9969 11.7791C47.0192 11.6276 46.9184 11.4874 46.7738 11.4649Z" fill="white"/>
<path d="M39.7414 20.4649L37.3432 20.1455L36.2711 18.1541C36.2418 18.0995 36.1937 18.0554 36.1341 18.0286C35.9849 17.9611 35.8035 18.0173 35.7289 18.1541L34.6569 20.1455L32.2586 20.4649C32.1925 20.4736 32.132 20.5021 32.0858 20.5454C32.0298 20.5981 31.999 20.669 32 20.7425C32.0011 20.816 32.034 20.8861 32.0914 20.9375L33.8266 22.4875L33.4166 24.6763C33.407 24.7273 33.4132 24.7796 33.4344 24.8275C33.4556 24.8754 33.491 24.9168 33.5367 24.9472C33.5823 24.9776 33.6363 24.9956 33.6925 24.9993C33.7488 25.003 33.805 24.9921 33.8549 24.968L36 23.9346L38.1451 24.968C38.2037 24.9966 38.2717 25.0061 38.3369 24.9957C38.5012 24.9697 38.6117 24.8269 38.5834 24.6763L38.1735 22.4875L39.9086 20.9375C39.9558 20.895 39.987 20.8397 39.9965 20.7791C40.022 20.6276 39.9067 20.4874 39.7414 20.4649Z" fill="white"/>
<path d="M24.7414 20.4649L22.3432 20.1455L21.2711 18.1541C21.2418 18.0995 21.1937 18.0554 21.1341 18.0286C20.9849 17.9611 20.8035 18.0173 20.7289 18.1541L19.6569 20.1455L17.2586 20.4649C17.1925 20.4736 17.132 20.5021 17.0858 20.5454C17.0298 20.5981 16.999 20.669 17 20.7425C17.0011 20.816 17.034 20.8861 17.0914 20.9375L18.8266 22.4875L18.4166 24.6763C18.407 24.7273 18.4132 24.7796 18.4344 24.8275C18.4556 24.8754 18.491 24.9168 18.5367 24.9472C18.5823 24.9776 18.6363 24.9956 18.6925 24.9993C18.7488 25.003 18.805 24.9921 18.8549 24.968L21 23.9346L23.1451 24.968C23.2037 24.9966 23.2717 25.0061 23.3369 24.9957C23.5012 24.9697 23.6117 24.8269 23.5834 24.6763L23.1735 22.4875L24.9086 20.9375C24.9558 20.895 24.987 20.8397 24.9965 20.7791C25.022 20.6276 24.9067 20.4874 24.7414 20.4649Z" fill="white"/>
<path d="M54.7414 20.4649L52.3432 20.1455L51.2711 18.1541C51.2418 18.0995 51.1937 18.0554 51.1341 18.0286C50.9849 17.9611 50.8035 18.0173 50.7289 18.1541L49.6569 20.1455L47.2586 20.4649C47.1925 20.4736 47.132 20.5021 47.0858 20.5454C47.0298 20.5981 46.999 20.669 47 20.7425C47.0011 20.816 47.034 20.8861 47.0914 20.9375L48.8266 22.4875L48.4166 24.6763C48.407 24.7273 48.4132 24.7796 48.4344 24.8275C48.4556 24.8754 48.491 24.9168 48.5367 24.9472C48.5823 24.9776 48.6363 24.9956 48.6925 24.9993C48.7488 25.003 48.805 24.9921 48.8549 24.968L51 23.9346L53.1451 24.968C53.2037 24.9966 53.2717 25.0061 53.3369 24.9957C53.5012 24.9697 53.6117 24.8269 53.5834 24.6763L53.1735 22.4875L54.9086 20.9375C54.9558 20.895 54.987 20.8397 54.9965 20.7791C55.022 20.6276 54.9067 20.4874 54.7414 20.4649Z" fill="white"/>
<path d="M39.7414 2.4649L37.3432 2.14554L36.2711 0.154059C36.2418 0.0995338 36.1937 0.0553941 36.1341 0.0285641C35.9849 -0.0389435 35.8036 0.0173129 35.7289 0.154059L34.6569 2.14554L32.2586 2.4649C32.1925 2.47355 32.132 2.50212 32.0858 2.54539C32.0298 2.59809 31.999 2.66898 32 2.7425C32.0011 2.81601 32.034 2.88613 32.0914 2.93745L33.8266 4.48753L33.4166 6.67634C33.407 6.72726 33.4132 6.77962 33.4344 6.8275C33.4556 6.87538 33.491 6.91685 33.5367 6.94722C33.5823 6.97758 33.6363 6.99562 33.6925 6.9993C33.7488 7.00297 33.805 6.99214 33.8549 6.96801L36 5.93462L38.1451 6.96801C38.2037 6.99657 38.2717 7.00609 38.3369 6.9957C38.5012 6.96974 38.6117 6.82693 38.5834 6.67634L38.1735 4.48753L39.9086 2.93745C39.9558 2.89504 39.987 2.83965 39.9965 2.77907C40.022 2.62761 39.9067 2.4874 39.7414 2.4649Z" fill="white"/>
</g>
<defs>
<clipPath id="clip0_164_67">
<rect width="70" height="70" fill="white"/>
</clipPath>
</defs>
</svg>
