<svg width="70" height="70" viewBox="0 0 70 70" fill="none" xmlns="http://www.w3.org/2000/svg">
<g clip-path="url(#clip0_166_112)">
<path fill-rule="evenodd" clip-rule="evenodd" d="M52.3123 40.4489L62.5199 58.129L50.2242 60.5742L41.9587 70L31.7511 52.32L31.7496 52.3174L35.1167 47.4297L37.6474 50.5362C38.943 49.055 40.6927 48.0448 42.6232 47.6634L46.3945 40.9185L52.3123 40.4489ZM42.956 59.8564L38.6528 52.403L42.1141 48.4444C42.5463 47.95 43.1302 47.6128 43.7745 47.4858L48.9334 46.4675L53.2381 53.9235L47.0888 55.1435L42.956 59.8564Z" fill="white"/>
<path fill-rule="evenodd" clip-rule="evenodd" d="M37.7688 52.3199L27.5613 70L19.2957 60.5742L7.00003 58.129L17.2076 40.4489L17.2091 40.4463L23.1255 40.9185L26.8967 46.6634C28.8272 47.0448 30.577 48.055 31.8725 49.5362L34.4033 47.4297L37.7688 52.3199ZM16.2833 53.9209L20.5866 46.4674L25.7455 47.4858C26.3897 47.6128 26.9737 47.95 27.4058 48.4444L30.8672 52.403L26.5624 59.859L22.4312 55.1435L16.2833 53.9209Z" fill="white"/>
<path fill-rule="evenodd" clip-rule="evenodd" d="M21.2664 47.9274L19.1651 43.742C18.8481 43.1072 18.3311 42.5864 17.6887 42.2548L10.8219 38.7282C10.1152 38.364 9.562 37.7721 9.25794 37.0546C8.95389 36.3372 8.91805 35.5393 9.15664 34.799L11.5944 27.2367C11.8024 26.5911 11.8024 25.8994 11.5944 25.2538L9.15664 17.6915C8.91743 16.9503 8.95331 16.1514 9.25807 15.4332C9.56282 14.715 10.1172 14.1227 10.8253 13.7589L17.6887 10.2323C18.3306 9.90161 18.8475 9.38205 19.1651 8.74846L22.6157 1.87152C22.9819 1.14221 23.6103 0.567626 24.383 0.255776C25.1556 -0.0560741 26.0192 -0.0837072 26.8114 0.178071L33.8911 2.51696C34.6101 2.75474 35.3901 2.75474 36.1091 2.51696L43.1889 0.178071C43.9815 -0.0834639 44.8454 -0.055344 45.618 0.257141C46.3907 0.569627 47.019 1.14494 47.3845 1.87485L50.8351 8.74846C51.1522 9.38329 51.6692 9.90407 52.3115 10.2356L59.1784 13.7623C59.8851 14.1264 60.4382 14.7184 60.7423 15.4359C61.0464 16.1533 61.0822 16.9511 60.8436 17.6915L58.4059 25.2538C58.1979 25.8994 58.1979 26.5911 58.4059 27.2367L60.8436 34.799C61.0828 35.5401 61.0469 36.339 60.7422 37.0573C60.4374 37.7755 59.883 38.3678 59.1749 38.7315L52.3115 42.2582C51.6697 42.5889 51.1527 43.1084 50.8351 43.742L48.7339 47.9274C48.4464 50.4279 44.0362 51.602 41.867 51.8766L36.1091 49.9735C35.3901 49.7357 34.6101 49.7357 33.8911 49.9735L28.1332 51.8766C23.0833 52.6545 21.4512 49.5657 21.2664 47.9241V47.9274ZM49.0978 36.376C47.168 37.3673 45.6133 38.9274 44.6584 40.8309L42.5331 45.0662L38.3237 43.6755C36.1689 42.9637 33.8314 42.9637 31.6766 43.6755L27.4672 45.0662L25.3419 40.8342C24.3875 38.9295 22.8328 37.3682 20.9024 36.376L16.5626 34.1469L18.1488 29.2229C18.7742 27.284 18.7742 25.2064 18.1488 23.2676L16.5626 18.3436L20.9024 16.1145C22.8323 15.1232 24.3869 13.5631 25.3419 11.6596L27.4672 7.42431L31.6766 8.815C33.8314 9.52681 36.1689 9.52681 38.3237 8.815L42.5331 7.42431L44.6584 11.6563C45.6127 13.561 47.1675 15.1223 49.0978 16.1145L53.4377 18.3436L51.8514 23.2676C51.226 25.2064 51.226 27.284 51.8514 29.2229L53.4377 34.1469L49.0978 36.376Z" fill="white"/>
<path d="M44.3536 22.6904L38.358 21.8236L35.6778 16.4182C35.6046 16.2702 35.4841 16.1504 35.3354 16.0775C34.9623 15.8943 34.5089 16.047 34.3223 16.4182L31.6421 21.8236L25.6465 22.6904C25.4812 22.7139 25.3301 22.7915 25.2144 22.9089C25.0745 23.0519 24.9974 23.2444 25.0001 23.4439C25.0027 23.6435 25.0849 23.8338 25.2285 23.9731L29.5665 28.1804L28.5416 34.1215C28.5176 34.2597 28.5329 34.4018 28.586 34.5318C28.639 34.6617 28.7276 34.7743 28.8417 34.8567C28.9557 34.9391 29.0907 34.9881 29.2314 34.9981C29.372 35.0081 29.5126 34.9787 29.6373 34.9132L35 32.1083L40.3628 34.9132C40.5092 34.9907 40.6792 35.0165 40.8422 34.9883C41.2531 34.9179 41.5293 34.5303 41.4585 34.1215L40.4336 28.1804L44.7715 23.9731C44.8896 23.858 44.9675 23.7076 44.9912 23.5432C45.0549 23.1321 44.7668 22.7515 44.3536 22.6904Z" fill="white"/>
</g>
<defs>
<clipPath id="clip0_166_112">
<rect width="70" height="70" fill="white"/>
</clipPath>
</defs>
</svg>
