<svg width="70" height="70" viewBox="0 0 70 70" fill="none" xmlns="http://www.w3.org/2000/svg">
<path fill-rule="evenodd" clip-rule="evenodd" d="M35.0727 0.494652C35.1551 0.339502 35.3609 0.154031 35.5299 0.0824779C35.9731 -0.105119 36.6422 0.0403962 36.9274 0.386402C37.1535 0.66057 37.1736 1.18468 37.1736 6.80606C37.1736 12.7703 37.1663 12.9351 36.8868 13.2372C36.5061 13.6488 35.6006 13.6633 35.2042 13.264C34.9316 12.9894 34.9229 12.7917 34.9229 6.87861C34.9229 2.83196 34.9734 0.681682 35.0727 0.494652ZM26.0608 9.82745C26.0608 6.60005 26.1139 6.26793 26.6677 6.03343C27.111 5.84583 27.78 5.99135 28.0653 6.33735C28.2835 6.60203 28.3115 6.99394 28.3115 9.78154C28.3115 12.7513 28.2954 12.9445 28.0246 13.2372C27.6302 13.6637 26.742 13.6637 26.3476 13.2372C26.0771 12.9448 26.0608 12.7511 26.0608 9.82745ZM43.785 9.85408C43.785 6.59905 43.8376 6.26821 44.392 6.03343C44.8353 5.84583 45.5043 5.99135 45.7896 6.33735C46.0077 6.60203 46.0357 6.99394 46.0357 9.78154C46.0357 12.7513 46.0197 12.9445 45.7489 13.2372C45.3683 13.6488 44.4628 13.6633 44.0664 13.264C43.8021 12.9977 43.785 12.7917 43.785 9.85408ZM24.1897 20.6211C26.6409 18.2507 29.9571 16.5588 33.1969 16.0255C34.8827 15.7481 38.2369 15.847 39.8463 16.2215C45.5373 17.5461 50.1474 21.6856 52.1339 27.2554C52.6542 28.7143 52.9007 29.8833 53.0709 31.701C53.7832 39.3099 48.8526 46.8778 41.5812 49.3364C34.1857 51.8369 26.0657 49.0666 21.8182 42.5937C19.9695 39.7762 19.1313 37.1587 18.9426 33.6141C18.6928 28.9167 20.6672 24.0274 24.1897 20.6211ZM13.2461 59.8089C13.3833 55.0552 13.4867 51.152 13.476 51.135C13.439 51.0763 6.50779 50.9089 6.4985 50.9664C6.46488 51.1759 5.97381 69.1658 6.0011 69.1931C6.0198 69.212 7.59741 69.2704 9.50685 69.3228L12.9786 69.4182L12.9877 68.9351C12.9926 68.6693 13.109 64.5626 13.2461 59.8089ZM29.2679 54.2227C27.2887 53.2746 25.9064 52.837 24.5197 52.7189C24.0133 52.6759 23.4408 52.6233 23.2474 52.6022C22.5388 52.525 20.6155 52.7631 19.5197 53.0638C18.9007 53.2335 17.8146 53.6602 17.1062 54.0117L15.818 54.651L15.7392 55.4589C15.6959 55.9031 15.6252 58.1476 15.5822 60.4465C15.5391 62.7454 15.4661 65.1533 15.4201 65.7974L15.3363 66.9683L16.7226 66.2933L18.109 65.6182L19.7287 65.6248L21.3484 65.6315L28.8741 67.81L36.3999 69.9884L38.5803 69.9995C40.9304 70.0114 42.1029 69.8113 43.6303 69.1379C44.699 68.6668 64.0612 56.0432 63.9999 55.8578C63.9721 55.774 63.6395 55.5449 63.2605 55.3485C62.7165 55.0666 62.3782 54.9946 61.6535 55.0065C60.7704 55.021 60.5442 55.1126 55.6716 57.4302L50.6075 59.8388L50.6569 60.7769C50.7033 61.6622 50.6822 61.7392 50.2807 62.1434C49.8608 62.5665 49.837 62.5717 48.4028 62.5627C45.2253 62.5425 35.1186 62.1811 34.8825 62.0792C34.4955 61.9123 34.1876 61.199 34.2931 60.7147C34.483 59.8443 34.6065 59.8256 39.468 59.9301C41.8811 59.9821 44.8208 60.0652 46.0006 60.1153C47.3951 60.1742 47.9768 60.218 48.0985 60.0022C48.1925 59.8355 48.0121 59.514 47.72 58.9251C47.206 57.889 46.2936 57.0083 45.2163 56.5084C44.3117 56.0887 43.5538 56.0234 36.8219 55.7859C32.4039 55.6299 32.0551 55.5578 29.2679 54.2227ZM32 24H38.5C41.54 24 44 26.46 44 29.5C44 32.54 41.54 35 38.5 35H34V37H38V39H34V42H32V39H30V37H32V35H30V33H32V24ZM34 33H38.5C40.43 33 42 31.43 42 29.5C42 27.57 40.43 26 38.5 26H34V33Z" fill="white"/>
</svg>
