<svg width="70" height="70" viewBox="0 0 70 70" fill="none" xmlns="http://www.w3.org/2000/svg">
<path d="M68 50.3375C67.9985 54.9261 66.4325 59.3767 63.5613 62.9524C60.6901 66.5281 56.6859 69.0145 52.2115 70L50.0742 63.5778C52.0313 63.2549 53.8926 62.5012 55.5239 61.3709C57.1552 60.2407 58.5158 58.762 59.5077 57.0415H51.25C49.473 57.0415 47.7689 56.3345 46.5124 55.076C45.2559 53.8175 44.55 52.1105 44.55 50.3307V36.9092C44.55 35.1294 45.2559 33.4225 46.5124 32.164C47.7689 30.9055 49.473 30.1984 51.25 30.1984H61.0923C60.2748 23.7121 57.1223 17.7475 52.2263 13.4238C47.3303 9.10007 41.0273 6.71438 34.5 6.71438C27.9727 6.71438 21.6697 9.10007 16.7737 13.4238C11.8777 17.7475 8.7252 23.7121 7.9077 30.1984H17.75C19.527 30.1984 21.2311 30.9055 22.4876 32.164C23.7441 33.4225 24.45 35.1294 24.45 36.9092V50.3307C24.45 52.1105 23.7441 53.8175 22.4876 55.076C21.2311 56.3345 19.527 57.0415 17.75 57.0415H7.7C5.92305 57.0415 4.21888 56.3345 2.96238 55.076C1.70589 53.8175 1 52.1105 1 50.3307V33.5538C1 15.0221 15.998 0 34.5 0C53.002 0 68 15.0221 68 33.5538V50.3375Z" fill="white"/>
</svg>
