<svg width="73" height="70" viewBox="0 0 73 70" fill="none" xmlns="http://www.w3.org/2000/svg">
<g clip-path="url(#clip0_164_96)">
<path fill-rule="evenodd" clip-rule="evenodd" d="M33.0509 4.18097L24.7632 8.35078L13.5257 8.42099C2.56654 8.48951 2.27872 8.49822 1.90648 8.77204C1.2481 9.25649 1.13066 9.72241 0.896924 12.774C0.316224 20.3589 0.12336 24.9566 0.019413 33.6968C-0.112488 44.7847 0.450092 60.11 1.02995 61.2311C1.6497 62.4292 2.81447 62.5246 17.0374 62.5418C23.218 62.5493 28.7961 62.6115 29.4331 62.6799L30.5914 62.8043L30.6271 48.0047L30.6629 33.2053L31.0364 33.9567L31.4101 34.7081L31.4286 48.7588C31.4387 56.4867 31.4797 62.8624 31.5198 62.9271C31.5598 62.9919 31.6836 63.0448 31.7949 63.0448C31.9698 63.0448 31.9974 61.1962 31.9974 49.4733V35.9017L32.3485 36.562L32.6997 37.2222V50.1185C32.6997 61.7487 32.7215 63.0232 32.9219 63.1C33.589 63.356 34.5699 62.9749 35.0228 62.284C35.1859 62.0353 35.3106 61.2761 35.4449 59.7146C35.7112 56.6179 36.0465 51.1922 36.1413 48.441C36.1853 47.1667 36.2562 45.7243 36.299 45.2358C36.3726 44.3934 36.3896 44.3593 36.6278 44.5748C36.7659 44.6998 37.0961 44.8373 37.3616 44.8804C37.7664 44.9461 38.1881 44.7866 39.976 43.8914C41.1484 43.3044 42.1401 42.8242 42.1797 42.8242C42.2192 42.8242 42.252 43.3454 42.2526 43.9827C42.2543 45.8884 42.9447 48.2825 44.2363 50.8612C45.7286 53.8406 46.9622 55.5385 49.4155 57.9897C50.9843 59.5569 51.2498 59.8953 51.8948 61.1491C53.0329 63.3609 53.7826 65.7458 54.2522 68.6483C54.3693 69.3725 54.4827 69.9806 54.5039 69.9999C54.5252 70.019 63.5169 70.3153 68.5 67.5C73.4831 64.6848 72.7659 59.7403 72.8914 59.6704C73.0874 59.5613 73.0408 59.4576 72.5633 58.9419C71.1516 57.4167 70.0024 53.7828 69.413 48.9802C69.2506 47.6559 69.1871 46.0577 69.1964 43.5263C69.2148 38.5351 68.9653 36.1835 68.0269 32.501C67.6314 30.9493 67.238 29.9738 65.4219 26.0416C64.2454 23.4942 63.0946 21.1461 62.8646 20.8235C61.1758 18.4551 57.3903 17.6624 53.2499 18.81L52.3494 19.0597L49.0684 12.5117C42.6094 -0.379487 42.8232 -0.0134099 41.76 0.0041427C41.4973 0.00849575 38.218 1.58121 33.0509 4.18097ZM42.3592 0.774774C42.5368 0.899187 43.4894 2.62791 44.584 4.81188C45.6368 6.91272 48.3572 12.306 50.6295 16.7971C52.9017 21.2881 55.017 25.5849 55.3301 26.3457C56.1075 28.2347 56.1415 28.8283 55.6077 31.1872C55.3696 32.2398 55.1735 33.156 55.172 33.2233C55.1689 33.3522 52.6258 28.3583 44.2416 11.7594L39.1544 1.68765L40.2466 1.12948C41.441 0.519067 41.887 0.444223 42.3592 0.774774ZM38.279 10.2817C40.0728 13.8536 43.693 21.0329 46.324 26.2358L51.1075 35.6955L50.437 35.5957C50.0684 35.5409 49.7583 35.4862 49.748 35.474C49.7378 35.4619 49.0807 34.1883 48.2876 32.6436C45.5054 27.2245 44.0403 24.4933 43.5696 23.8486C42.0819 21.8111 40.2907 21.1055 38.557 21.8739C37.6125 22.2926 36.1732 23.7126 35.7796 24.6142C35.521 25.2061 35.4629 25.5903 35.4672 26.6757C35.4702 27.4094 35.5462 28.3257 35.6359 28.7118C36.3737 31.8854 38.7677 36.9145 41.4334 40.8907L42.2553 42.1167L41.2718 42.6119C40.7309 42.8841 39.7454 43.3908 39.0816 43.7379C38.4181 44.0849 37.7494 44.3688 37.5959 44.3688C36.8639 44.3688 37.3196 45.2172 25.9749 22.73C22.4828 15.808 20.6194 11.9679 20.6194 11.6936C20.6194 11.4471 20.7402 11.1621 20.9113 11.0054C21.1259 10.8087 34.5052 3.9497 34.9472 3.8097C34.9858 3.79748 36.4851 6.70996 38.279 10.2817ZM24.4198 20.8483L28.339 28.5714L28.3415 29.4842C28.3445 30.4969 28.069 31.116 27.4293 31.535C27.0895 31.7576 26.2287 31.7743 16.0138 31.7576C8.05425 31.7445 4.85689 31.6944 4.57637 31.5783C4.36216 31.4895 4.04414 31.1875 3.86967 30.9069L3.55235 30.3969V22.3929V14.3889L3.86588 13.8849C4.03838 13.6077 4.32283 13.3116 4.49799 13.2268C4.71965 13.1195 7.20259 13.0806 12.6585 13.0988L20.5007 13.1251L24.4198 20.8483ZM11.1826 13.9174C8.0558 14.3074 5.33322 16.6987 4.54744 19.7451C4.32128 20.6223 4.23756 23.0974 4.43029 23.2104C4.48816 23.2444 4.73805 23.2415 4.98542 23.2037L5.43534 23.1353L5.3564 22.2726C5.00466 18.4266 8.27872 14.8891 12.1968 14.882C13.2311 14.8802 14.4507 15.1588 15.2966 15.5901C15.9003 15.898 16.1177 15.8387 16.4139 15.2856C16.5279 15.0726 16.4188 14.9756 15.6687 14.6235C14.2453 13.9557 12.7556 13.7212 11.1826 13.9174ZM11.0922 16.0051C9.50066 16.3403 7.83456 17.5624 7.08038 18.9475C6.59351 19.8417 6.2502 21.4595 6.37312 22.2797C6.44293 22.7451 6.51794 22.8814 6.67133 22.8226C6.78413 22.7793 6.98949 22.7439 7.12772 22.7439C7.34235 22.7439 7.38843 22.5841 7.44237 21.6529C7.5532 19.7398 8.38421 18.3906 9.9739 17.5436C10.713 17.1497 11.0412 17.0635 11.9892 17.0136C12.953 16.9631 13.2488 17.0055 13.9743 17.2984L14.8268 17.6427L15.0696 17.2319C15.3568 16.7457 15.3018 16.6759 14.3299 16.2952C13.4665 15.9571 11.9606 15.8222 11.0922 16.0051ZM10.828 18.2652C9.44911 18.7952 8.29235 20.5607 8.42453 21.9336C8.46274 22.3301 8.51682 22.3878 8.81995 22.3561C9.44279 22.2909 9.52229 22.2075 9.52229 21.6195C9.52229 19.72 11.5754 18.5052 13.4587 19.2903C13.6015 19.3498 13.7531 19.243 13.9152 18.9687C14.0486 18.7429 14.1578 18.523 14.1578 18.4799C14.1578 18.3314 12.7001 17.9696 12.1305 17.9769C11.8163 17.981 11.2301 18.1108 10.828 18.2652ZM41.4042 23.0908C41.8384 23.4835 43.9372 26.7561 43.9372 27.0403C43.9372 27.0714 43.8142 27.097 43.6639 27.097C43.1995 27.097 41.3454 28.1395 39.7746 29.2839L38.2763 30.3754L38.0301 30.0715C37.6335 29.582 36.898 27.6838 36.7434 26.7509C36.6167 25.9866 36.635 25.81 36.9059 25.1807C37.3159 24.2278 38.2489 23.3367 39.1845 23.0044C40.0533 22.6958 41.0086 22.733 41.4042 23.0908ZM8.20792 34.6285C8.8427 34.9296 9.15454 35.5386 9.05481 36.2821C8.96238 36.9709 8.51176 37.4088 7.65883 37.6391C6.85535 37.8561 4.93555 37.7402 4.36244 37.4403C3.77289 37.1318 3.42846 36.4687 3.53072 35.8391C3.62217 35.276 3.81531 35.012 4.39517 34.6576C4.97095 34.3055 7.48675 34.2864 8.20792 34.6285ZM15.0335 34.9282C15.4127 35.3077 15.4922 35.4946 15.4922 36.0062C15.4922 37.2333 14.7299 37.7478 12.8936 37.7603C11.0159 37.7731 10.1293 37.3218 9.98977 36.2821C9.89159 35.5501 10.1953 34.9408 10.8143 34.6278C11.1847 34.4405 11.6101 34.4009 12.9264 34.4312L14.5745 34.4691L15.0335 34.9282ZM21.474 34.9277C21.8058 35.2991 21.8836 35.5143 21.8836 36.0599C21.8836 36.6118 21.8138 36.8001 21.4973 37.1019C20.9379 37.6353 20.4664 37.769 19.1444 37.769C17.8225 37.769 17.3509 37.6353 16.7916 37.1019C16.479 36.8039 16.4058 36.6111 16.4084 36.0928C16.4119 35.3741 16.6698 34.9544 17.3183 34.6114C17.6496 34.4361 18.0955 34.3971 19.4021 34.4288L21.0645 34.4691L21.474 34.9277ZM27.4182 34.5947C28.0292 34.8499 28.3452 35.3181 28.3452 35.9681C28.3452 36.7528 28.0888 37.1704 27.4033 37.5021C26.869 37.7607 26.6015 37.7932 25.4231 37.7421C23.4175 37.6551 22.8201 37.2523 22.8201 35.9868C22.8201 35.3403 23 35.0484 23.6394 34.6576C24.1759 34.3295 26.6838 34.288 27.4182 34.5947ZM6.10426 35.0542C5.93359 35.2247 6.00719 35.3744 6.22127 35.2923C6.39643 35.225 6.43197 35.38 6.43197 36.2094C6.43197 36.781 6.49195 37.2073 6.57244 37.2073C6.65433 37.2073 6.71291 36.7393 6.71291 36.084C6.71291 35.0882 6.68369 34.9606 6.45543 34.9606C6.3137 34.9606 6.15567 35.0027 6.10426 35.0542ZM12.1073 35.1232C12.0378 35.2355 12.1045 35.2601 12.3232 35.203C13.161 34.9839 13.2784 35.6722 12.5424 36.4867C12.272 36.7859 12.0507 37.0704 12.0507 37.119C12.0507 37.1676 12.3668 37.2073 12.7531 37.2073C13.1394 37.2073 13.4554 37.1441 13.4554 37.0669C13.4554 36.9897 13.2269 36.9265 12.9475 36.9265H12.4394L12.9475 36.3644C13.496 35.7573 13.5317 35.6461 13.31 35.2322C13.1458 34.9256 12.2782 34.8468 12.1073 35.1232ZM18.6528 35.0714C18.6528 35.1325 18.8267 35.1798 19.0391 35.1767C19.5389 35.1695 19.6017 35.7079 19.1093 35.7778C18.9354 35.8024 18.7933 35.8771 18.7933 35.9435C18.7933 36.01 18.9354 36.0847 19.1093 36.1092C19.3408 36.1422 19.4254 36.2481 19.4254 36.5052C19.4254 36.808 19.3626 36.8561 18.9684 36.8549C18.421 36.8532 18.4403 37.1179 18.9922 37.1828C19.3969 37.2304 19.917 36.8821 19.917 36.5636C19.917 36.4653 19.8159 36.2838 19.6924 36.1604C19.5164 35.9844 19.5038 35.8923 19.6337 35.7357C19.725 35.6258 19.7587 35.4063 19.7084 35.2482C19.6397 35.0319 19.4976 34.9606 19.135 34.9606C18.8698 34.9606 18.6528 35.0104 18.6528 35.0714ZM24.9037 35.5223L24.355 36.084L24.9037 36.6456C25.2054 36.9546 25.5028 37.2073 25.5643 37.2073C25.7744 37.2073 25.6767 36.8748 25.3709 36.5493L25.0653 36.2244H25.9327C26.4172 36.2244 26.8 36.1625 26.8 36.084C26.8 35.9677 26.0399 35.878 25.29 35.9058C25.0344 35.9153 25.0746 35.7422 25.3953 35.4521C25.6837 35.1912 25.7629 34.9606 25.5643 34.9606C25.5028 34.9606 25.2054 35.2133 24.9037 35.5223ZM8.11212 39.8023C9.52468 40.5325 9.37016 42.4008 7.86279 42.8193C6.9857 43.0628 5.17576 42.9939 4.50979 42.6918C3.15721 42.0778 3.17224 40.3931 4.53564 39.7915C5.13699 39.5261 7.59225 39.5336 8.11212 39.8023ZM14.4783 39.7857C15.8705 40.3748 15.9035 42.0705 14.5348 42.6918C14.1163 42.8816 13.6234 42.9591 12.8233 42.9607C10.8917 42.9647 10.1349 42.5584 9.9843 41.4367C9.89355 40.7607 10.1515 40.2823 10.8292 39.8692C11.1932 39.6473 11.5382 39.5955 12.6522 39.5951C13.498 39.5946 14.2001 39.6681 14.4783 39.7857ZM20.9566 39.7902C21.6101 40.0632 21.8836 40.5137 21.8836 41.3172C21.8836 42.4837 21.0859 42.9631 19.1444 42.9631C17.8497 42.9631 17.2043 42.7689 16.7654 42.2476C16.0885 41.4434 16.345 40.3137 17.3183 39.813C17.8732 39.5276 20.2916 39.5125 20.9566 39.7902ZM27.4508 39.8234C28.0967 40.1298 28.3452 40.5204 28.3452 41.2298C28.3452 41.9694 27.8421 42.6152 27.1071 42.8193C26.4442 43.0034 24.7725 43.0046 24.1132 42.8216C23.2989 42.5954 22.8669 42.0651 22.8669 41.2916C22.8669 40.0066 23.5068 39.6082 25.5848 39.6C26.582 39.596 27.103 39.6584 27.4508 39.8234ZM5.94805 40.8857C5.67779 41.2868 5.4706 41.629 5.48774 41.6462C5.50487 41.6633 5.74016 41.7022 6.01056 41.7327C6.38758 41.7752 6.51274 41.8599 6.54716 42.0955C6.60952 42.5233 6.85338 42.4818 6.85338 42.0436C6.85338 41.8398 6.9142 41.7217 6.99385 41.771C7.07111 41.8188 7.13432 41.7908 7.13432 41.7091C7.13432 41.6274 7.07111 41.5604 6.99385 41.5604C6.91659 41.5604 6.85338 41.2444 6.85338 40.8583C6.85338 39.9264 6.58888 39.9344 5.94805 40.8857ZM12.2765 40.3783C12.0923 40.8581 12.1892 41.1036 12.5949 41.1848C13.3758 41.3409 13.2523 42.1221 12.4467 42.1221C12.2074 42.1221 12.0707 42.181 12.121 42.2625C12.2714 42.5058 12.9795 42.415 13.2485 42.1179C13.6185 41.7092 13.3901 41.0863 12.8475 41.0237C12.5354 40.9876 12.4641 40.916 12.4988 40.6726C12.531 40.4464 12.6416 40.3651 12.9233 40.3603C13.1329 40.3568 13.349 40.3095 13.4033 40.255C13.4577 40.2007 13.2456 40.1562 12.932 40.1562C12.5415 40.1562 12.3349 40.2262 12.2765 40.3783ZM18.9659 40.2501C18.7208 40.3487 18.3719 41.0547 18.3719 41.452C18.3719 42.233 19.1928 42.6856 19.6963 42.1823C20.201 41.6776 19.7729 40.7583 19.1104 40.9244C18.6017 41.0522 18.7747 40.7018 19.3654 40.4086C19.8062 40.1897 19.8173 40.1701 19.4956 40.174C19.3025 40.1764 19.0641 40.2107 18.9659 40.2501ZM25.4724 40.2854C25.4286 40.3564 25.5512 40.5392 25.7451 40.6917C25.9391 40.8442 26.0977 41.0073 26.0977 41.054C26.0977 41.1008 25.683 41.1391 25.1763 41.1391C24.5979 41.1391 24.2873 41.1914 24.3418 41.2795C24.3896 41.3568 24.816 41.42 25.2894 41.42H26.1502L25.7612 41.8258C25.4889 42.11 25.4224 42.2626 25.5396 42.3351C25.6404 42.3974 25.936 42.2094 26.2842 41.8613L26.8615 41.2842L26.3106 40.7201C25.7395 40.1354 25.6076 40.067 25.4724 40.2854ZM6.57244 41.0689C6.57244 41.4996 6.5289 41.5604 6.22127 41.5604C6.02812 41.5604 5.87009 41.5263 5.87009 41.4846C5.87009 41.3957 6.46414 40.5774 6.52861 40.5774C6.55277 40.5774 6.57244 40.7986 6.57244 41.0689ZM19.581 41.5004C19.685 41.9147 19.4967 42.1704 19.1392 42.1002C18.7552 42.0246 18.5634 41.6265 18.7834 41.3615C19.0703 41.0161 19.4772 41.0869 19.581 41.5004ZM8.02826 44.9837C9.45009 45.5776 9.45009 47.3727 8.02826 47.9665C7.40163 48.2283 5.16817 48.2228 4.53423 47.958C3.18278 47.3935 3.18362 45.5836 4.53564 44.9871C5.10735 44.7347 7.42705 44.7325 8.02826 44.9837ZM14.4783 44.9813C15.1069 45.2473 15.4337 45.6589 15.5163 46.2886C15.6074 46.9847 15.1236 47.7392 14.4338 47.9768C13.7515 48.2116 11.5876 48.2053 11.0163 47.9665C9.61093 47.3796 9.59239 45.5959 10.9853 44.9896C11.5672 44.7363 13.8862 44.7308 14.4783 44.9813ZM20.9566 44.9858C21.6123 45.2596 21.8836 45.7089 21.8836 46.5202C21.8836 47.0982 21.8187 47.2657 21.4672 47.5939C21.2381 47.8077 20.851 48.0226 20.6069 48.0714C19.8173 48.2293 17.9576 48.1669 17.4779 47.9665C16.1465 47.4105 16.0225 45.7166 17.2648 45.0548C17.8711 44.7319 20.2426 44.6876 20.9566 44.9858ZM27.3506 45.0126C28.042 45.2891 28.3452 45.735 28.3452 46.4751C28.3452 47.6795 27.5484 48.1621 25.5681 48.1571C24.2239 48.1537 23.2954 47.8557 23.0187 47.3389C22.9351 47.1828 22.8669 46.7738 22.8669 46.4298C22.8669 45.7323 23.1169 45.3425 23.7799 45.0058C24.3648 44.7088 26.6018 44.7131 27.3506 45.0126ZM24.9903 45.8265C24.6177 46.2061 24.4446 46.4786 24.5392 46.5371C24.6234 46.5891 24.8486 46.4543 25.0395 46.2375L25.3865 45.8432L25.3908 46.7911C25.3943 47.538 25.44 47.7389 25.606 47.7389C25.7719 47.7389 25.8167 47.543 25.8167 46.8183V45.8977L26.1581 46.2917C26.397 46.5675 26.5445 46.6417 26.6491 46.5389C26.7545 46.4357 26.6202 46.2168 26.1968 45.8014L25.5948 45.2108L24.9903 45.8265ZM5.58916 45.4922C5.58916 45.5694 5.84284 45.6326 6.15286 45.6326H6.71642L6.22127 46.6155C5.9489 47.1562 5.78932 47.5985 5.86658 47.5985C6.00874 47.5985 6.99385 45.7609 6.99385 45.4957C6.99385 45.4165 6.67779 45.3518 6.2915 45.3518C5.90521 45.3518 5.58916 45.4149 5.58916 45.4922ZM12.2256 45.5139C12.0148 45.7247 11.9964 46.1442 12.1928 46.2655C12.2825 46.3209 12.2568 46.4643 12.1225 46.656C11.857 47.035 11.8577 47.1048 12.1309 47.3779C12.3922 47.6389 13.0482 47.6686 13.2869 47.43C13.5261 47.1909 13.4959 46.6223 13.2387 46.5236C13.0479 46.4504 13.0514 46.4079 13.2679 46.1687C13.4544 45.9626 13.4779 45.8397 13.3651 45.6594C13.1824 45.3676 12.4637 45.2759 12.2256 45.5139ZM18.5658 45.7086C18.3747 46.0002 18.362 46.1311 18.4962 46.4256C18.6348 46.7296 18.7348 46.7772 19.1374 46.7301C19.5647 46.6803 19.6 46.7015 19.4755 46.9337C19.3992 47.0764 19.2461 47.2212 19.1353 47.2553C18.532 47.4418 18.4466 47.4925 18.6237 47.5583C19.45 47.8657 20.2501 46.517 19.7716 45.6233C19.5526 45.2143 18.8577 45.2633 18.5658 45.7086ZM13.0399 45.7098C13.189 45.8894 13.181 45.9672 12.9938 46.1541C12.8069 46.3412 12.7291 46.3492 12.5494 46.2002C12.2869 45.9824 12.2664 45.6823 12.5073 45.5851C12.7951 45.469 12.8509 45.4821 13.0399 45.7098ZM19.4907 45.7638C19.6993 46.1534 19.6722 46.3055 19.3648 46.4699C19.1602 46.5795 19.0396 46.5609 18.8732 46.3947C18.5963 46.1178 18.5963 45.99 18.8735 45.7128C19.1644 45.4221 19.3144 45.4345 19.4907 45.7638ZM13.1745 47.0267C13.1745 47.3202 12.86 47.4902 12.5424 47.3685C12.2923 47.2724 12.2655 46.8783 12.4936 46.6502C12.7142 46.4298 13.1745 46.6844 13.1745 47.0267ZM8.02826 50.1793C9.04835 50.6053 9.42481 51.7829 8.79635 52.5815C8.33617 53.1663 7.72344 53.3558 6.2915 53.3558C4.42354 53.3558 3.67119 52.9478 3.52833 51.8572C3.43717 51.1611 3.92094 50.4066 4.61079 50.169C5.29305 49.9343 7.45697 49.9406 8.02826 50.1793ZM14.4338 50.169C15.1236 50.4066 15.6074 51.1611 15.5163 51.8572C15.4337 52.487 15.1069 52.8986 14.4783 53.1645C13.8774 53.4188 11.6269 53.4173 11.0163 53.1621C9.61093 52.5752 9.59239 50.7915 10.9853 50.1852C11.5271 49.9494 13.7656 49.939 14.4338 50.169ZM27.3506 50.2082C28.0531 50.4892 28.3452 50.9318 28.3452 51.7155C28.3452 52.3991 27.9452 52.9669 27.2879 53.2167C27.0743 53.2979 25.0571 53.3558 22.4391 53.3558C18.6299 53.3558 17.8705 53.3215 17.386 53.1277C16.0476 52.5924 16.0852 50.7779 17.4469 50.1852C17.7787 50.0408 18.9254 49.9953 22.3373 49.9911C26.0864 49.9865 26.8827 50.021 27.3506 50.2082ZM5.82163 50.8042C5.55839 51.0948 5.50754 52.0984 5.73454 52.5225C5.91364 52.857 6.60138 52.8869 6.86321 52.5716C7.10215 52.2838 7.10215 51.0576 6.86321 50.7698C6.61556 50.4715 6.10763 50.4882 5.82163 50.8042ZM12.2081 51.109L12.5238 51.6707L12.2081 52.2324C11.8334 52.8987 12.0373 52.9936 12.4485 52.3443L12.7334 51.8945L12.9891 52.3435C13.1297 52.5903 13.3273 52.7927 13.4283 52.7932C13.5528 52.7938 13.5001 52.6068 13.2643 52.2113L12.9166 51.6286L13.2581 51.088C13.5054 50.6962 13.5456 50.5473 13.404 50.5473C13.2966 50.5473 13.13 50.7369 13.034 50.9686C12.9381 51.2003 12.8117 51.3899 12.7531 51.3899C12.6945 51.3899 12.5681 51.2003 12.4721 50.9686C12.3762 50.7369 12.2064 50.5473 12.095 50.5473C11.9372 50.5473 11.9624 50.6719 12.2081 51.109ZM26.6595 51.0388V51.5303H25.9572C25.2592 51.5303 25.2548 51.5275 25.2548 51.0763V50.6222L24.7305 51.1465L24.206 51.6707L24.7305 52.1949L25.2548 52.7192V52.2651V51.8111H26.0274H26.8V51.1792C26.8 50.8317 26.7684 50.5473 26.7298 50.5473C26.6911 50.5473 26.6595 50.7685 26.6595 51.0388ZM6.71291 51.6707C6.71291 52.4399 6.43647 52.8084 6.0808 52.5132C5.79312 52.2745 5.80309 51.1961 6.09569 50.9036C6.44869 50.5507 6.71291 50.8792 6.71291 51.6707ZM18.0909 51.6005C18.0909 52.365 18.0951 52.3728 18.5123 52.3728C18.7441 52.3728 18.9337 52.3096 18.9337 52.2324C18.9337 52.1552 18.7757 52.092 18.5826 52.092C18.364 52.092 18.2314 52.0124 18.2314 51.8813C18.2314 51.7644 18.3563 51.6707 18.5123 51.6707C18.6668 51.6707 18.7933 51.6047 18.7933 51.5241C18.7933 51.4435 18.6827 51.3962 18.5474 51.4188C18.162 51.4835 18.2571 51.0638 18.6528 50.9539C18.9769 50.8637 18.9687 50.8551 18.5474 50.8422L18.0909 50.8282V51.6005ZM19.1623 51.1457C19.0326 51.6294 19.0587 52.2063 19.2147 52.3026C19.2999 52.3553 19.3557 52.1516 19.3564 51.7843L19.3578 51.1792L19.7156 51.776C19.9124 52.1042 20.1014 52.3728 20.1357 52.3728C20.17 52.3728 20.189 52.0095 20.178 51.5654C20.1595 50.8126 20.1522 50.796 20.0696 51.3197L19.9809 51.8813L19.7393 51.4338C19.4196 50.8419 19.2645 50.7644 19.1623 51.1457ZM20.4789 50.9686C20.4789 51.0458 20.558 51.0932 20.6545 51.0739C20.768 51.0512 20.8596 51.2871 20.9134 51.7409L20.9967 52.443L21.0187 51.7161C21.0357 51.1535 21.0964 50.9746 21.2866 50.9249C21.4219 50.8897 21.2954 50.8535 21.0056 50.8445C20.716 50.8355 20.4789 50.8914 20.4789 50.9686ZM21.6305 51.5654C21.6701 52.253 21.6989 52.3056 22.0592 52.347C22.2716 52.3714 22.4455 52.3241 22.4455 52.2417C22.4455 52.1594 22.319 52.092 22.1645 52.092C22.0085 52.092 21.8836 51.9983 21.8836 51.8813C21.8836 51.7623 22.0093 51.6707 22.1728 51.6707C22.3318 51.6707 22.4247 51.6103 22.379 51.5365C22.3334 51.4626 22.2031 51.4378 22.0898 51.4813C21.95 51.5348 21.8836 51.4681 21.8836 51.2743C21.8836 51.0892 21.9953 50.9666 22.1996 50.9273C22.4244 50.8841 22.3817 50.8609 22.0519 50.8473L21.5879 50.8282L21.6305 51.5654ZM22.7475 51.6263C22.759 52.0755 22.7948 52.2692 22.827 52.0569C22.8591 51.8445 22.9639 51.6707 23.0597 51.6707C23.1557 51.6707 23.3006 51.8445 23.382 52.0569C23.5127 52.3985 23.5281 52.354 23.5144 51.6707C23.4997 50.937 23.4797 50.8961 23.1127 50.854C22.7285 50.8098 22.7265 50.8139 22.7475 51.6263ZM23.3585 51.2494C23.3585 51.3632 23.248 51.4775 23.1127 51.5036C22.9402 51.5367 22.8669 51.4609 22.8669 51.2494C22.8669 51.038 22.9402 50.9621 23.1127 50.9953C23.248 51.0214 23.3585 51.1357 23.3585 51.2494Z" fill="white"/>
<path d="M41.0001 23.5L43.5001 27C43.5001 27 42.0001 27 40.5001 28C39.0001 29 38.5001 30 38.5001 30C37.8334 29.6667 36.7968 26.8127 37.0001 26C37.6138 23.5457 40.0001 23.1667 41.0001 23.5Z" fill="white"/>
</g>
<defs>
<clipPath id="clip0_164_96">
<rect width="73" height="70" fill="white"/>
</clipPath>
</defs>
</svg>
